<?xml version="1.0" encoding="UTF-8"?>
<!DOCTYPE svg PUBLIC "-//W3C//DTD SVG 1.1//EN" "http://www.w3.org/Graphics/SVG/1.1/DTD/svg11.dtd">
<!-- Creator: CorelDRAW X8 -->
<svg xmlns="http://www.w3.org/2000/svg" xml:space="preserve" width="56px" height="88px" version="1.1" style="shape-rendering:geometricPrecision; text-rendering:geometricPrecision; image-rendering:optimizeQuality; fill-rule:evenodd; clip-rule:evenodd"
viewBox="0 0 59289 92220"
 xmlns:xlink="http://www.w3.org/1999/xlink">
 <defs>
  <style type="text/css">
   <![CDATA[
    .fil0 {fill:#1A1A1A}
   ]]>
  </style>
 </defs>
 <g id="Plan_x0020_1">
  <metadata id="CorelCorpID_0Corel-Layer"/>
  <path class="fil0" d="M29644 0c874,0 1712,347 2329,965 618,618 965,1456 965,2329l0 77676 20721 -20728c618,-619 1457,-966 2332,-966 874,0 1713,347 2332,966 618,619 966,1458 966,2331 0,875 -348,1714 -966,2332l-26347 26347c-305,306 -669,550 -1070,715 -399,167 -829,253 -1262,253 -433,0 -862,-86 -1262,-253 -399,-165 -763,-409 -1069,-715l-26347 -26347c-619,-618 -966,-1457 -966,-2332 0,-873 347,-1712 966,-2331 619,-619 1457,-966 2331,-966 875,0 1714,347 2333,966l20721 20728 0 -77676c0,-873 347,-1711 964,-2329 618,-618 1455,-965 2329,-965z"/>
 </g>
</svg>
