<?xml version="1.0" encoding="UTF-8"?>
<!DOCTYPE svg PUBLIC "-//W3C//DTD SVG 1.1//EN" "http://www.w3.org/Graphics/SVG/1.1/DTD/svg11.dtd">
<!-- Creator: CorelDRAW X8 -->
<svg xmlns="http://www.w3.org/2000/svg" xml:space="preserve" width="75px" height="75px" version="1.1" style="shape-rendering:geometricPrecision; text-rendering:geometricPrecision; image-rendering:optimizeQuality; fill-rule:evenodd; clip-rule:evenodd"
viewBox="0 0 75000 75001"
 xmlns:xlink="http://www.w3.org/1999/xlink">
 <defs>
  <style type="text/css">
   <![CDATA[
    .fil0 {fill:#1A1A1A}
   ]]>
  </style>
 </defs>
 <g id="Plan_x0020_1">
  <metadata id="CorelCorpID_0Corel-Layer"/>
  <path class="fil0" d="M70859 1l-66718 0c-2288,0 -4141,1853 -4141,4141l0 66722c0,2284 1853,4137 4141,4137l35922 0 0 -29043 -9776 0 0 -11319 9776 -1 0 -8347c0,-9687 5916,-14962 14559,-14962 4141,0 7698,310 8735,447l0 10125 -5994 4c-4700,0 -5609,2234 -5609,5510l0 7228 11208 -1 -1460 11318 -9748 0 0 29041 19112 0c2281,0 4134,-1853 4134,-4141l0 -66719c0,-2288 -1853,-4141 -4141,-4141l0 1z"/>
 </g>
</svg>
