<?xml version="1.0" encoding="UTF-8"?>
<!DOCTYPE svg PUBLIC "-//W3C//DTD SVG 1.1//EN" "http://www.w3.org/Graphics/SVG/1.1/DTD/svg11.dtd">
<!-- Creator: CorelDRAW X8 -->
<svg xmlns="http://www.w3.org/2000/svg" xml:space="preserve" width="59px" height="59px" version="1.1" style="shape-rendering:geometricPrecision; text-rendering:geometricPrecision; image-rendering:optimizeQuality; fill-rule:evenodd; clip-rule:evenodd"
viewBox="0 0 59017 59014"
 xmlns:xlink="http://www.w3.org/1999/xlink">
 <defs>
  <style type="text/css">
   <![CDATA[
    .fil0 {fill:#1A1A1A}
   ]]>
  </style>
 </defs>
 <g id="Plan_x0020_1">
  <metadata id="CorelCorpID_0Corel-Layer"/>
  <path class="fil0" d="M29500 19667c-5417,0 -9840,4422 -9840,9840 0,5418 4423,9840 9840,9840 5419,0 9840,-4422 9840,-9840 0,-5418 -4421,-9840 -9840,-9840zm29513 9840c0,-4075 37,-8112 -193,-12180 -228,-4724 -1306,-8917 -4760,-12371 -3463,-3463 -7648,-4533 -12372,-4762 -4076,-229 -8113,-192 -12180,-192 -4076,0 -8113,-37 -12180,192 -4724,229 -8917,1307 -12372,4762 -3462,3461 -4532,7647 -4761,12371 -230,4075 -193,8113 -193,12180 0,4068 -37,8113 193,12180 229,4724 1306,8917 4761,12372 3462,3461 7648,4532 12372,4760 4075,230 8113,193 12180,193 4075,0 8112,37 12180,-193 4724,-228 8916,-1306 12372,-4760 3462,-3463 4532,-7648 4760,-12372 237,-4067 193,-8105 193,-12180zm-29513 15139c-8378,0 -15139,-6761 -15139,-15139 0,-8379 6761,-15140 15139,-15140 8379,0 15140,6761 15140,15140 0,8378 -6761,15139 -15140,15139zm15761 -27363c-1957,0 -3536,-1580 -3536,-3536 0,-1956 1579,-3536 3536,-3536 1955,0 3535,1580 3535,3536 1,464 -90,924 -268,1354 -177,429 -438,819 -766,1148 -329,328 -718,588 -1148,765 -428,179 -889,269 -1353,269z"/>
 </g>
</svg>
