<?xml version="1.0" encoding="UTF-8"?>
<!DOCTYPE svg PUBLIC "-//W3C//DTD SVG 1.1//EN" "http://www.w3.org/Graphics/SVG/1.1/DTD/svg11.dtd">
<!-- Creator: CorelDRAW X8 -->
<svg xmlns="http://www.w3.org/2000/svg" xml:space="preserve" width="69px" height="69px" version="1.1" style="shape-rendering:geometricPrecision; text-rendering:geometricPrecision; image-rendering:optimizeQuality; fill-rule:evenodd; clip-rule:evenodd"
viewBox="0 0 69000 68999"
 xmlns:xlink="http://www.w3.org/1999/xlink">
 <defs>
  <style type="text/css">
   <![CDATA[
    .fil0 {fill:#1A1A1A}
   ]]>
  </style>
 </defs>
 <g id="Plan_x0020_1">
  <metadata id="CorelCorpID_0Corel-Layer"/>
  <path class="fil0" d="M1 5766c0,-1530 607,-2996 1688,-4077 1081,-1081 2547,-1688 4077,-1688l57462 0c758,-1 1508,147 2209,436 700,290 1336,714 1873,1250 535,534 961,1171 1250,1870 291,701 439,1451 439,2209l0 57462c1,758 -147,1508 -438,2209 -289,700 -713,1337 -1249,1873 -536,535 -1172,961 -1873,1250 -699,291 -1450,439 -2208,439l-57465 0c-758,0 -1508,-150 -2208,-439 -699,-290 -1334,-715 -1870,-1250 -535,-536 -960,-1171 -1249,-1872 -290,-699 -439,-1450 -438,-2207l0 -57465zm27311 20542l9343 0 0 4692c1348,-2697 4798,-5125 9982,-5125 9939,0 12295,5372 12295,15230l0 18259 -10058 0 0 -16013c0,-5614 -1349,-8782 -4774,-8782 -4752,0 -6727,3416 -6727,8782l0 16013 -10061 0 0 -33056zm-17249 32627l10060 0 0 -33060 -10060 0 0 33057 0 3zm11500 -43842c19,861 -134,1718 -450,2519 -317,801 -791,1532 -1393,2148 -604,615 -1323,1105 -2117,1439 -795,334 -1647,506 -2509,506 -861,0 -1715,-172 -2509,-506 -794,-334 -1514,-824 -2116,-1439 -602,-616 -1076,-1347 -1393,-2148 -316,-801 -469,-1658 -450,-2519 37,-1691 735,-3300 1944,-4483 1209,-1183 2833,-1845 4524,-1845 1692,0 3316,662 4525,1845 1209,1183 1907,2792 1944,4483z"/>
 </g>
</svg>
