<?xml version="1.0" encoding="UTF-8"?>
<!DOCTYPE svg PUBLIC "-//W3C//DTD SVG 1.1//EN" "http://www.w3.org/Graphics/SVG/1.1/DTD/svg11.dtd">
<!-- Creator: CorelDRAW X8 -->
<svg xmlns="http://www.w3.org/2000/svg" xml:space="preserve" width="912px" height="144px" version="1.1" style="shape-rendering:geometricPrecision; text-rendering:geometricPrecision; image-rendering:optimizeQuality; fill-rule:evenodd; clip-rule:evenodd"
viewBox="0 0 95443 15059"
 xmlns:xlink="http://www.w3.org/1999/xlink">
 <defs>
  <style type="text/css">
   <![CDATA[
    .fil3 {fill:#1A1A1A;fill-rule:nonzero}
    .fil2 {fill:url(#id0)}
    .fil1 {fill:url(#id1)}
    .fil0 {fill:url(#id2)}
   ]]>
  </style>
  <linearGradient id="id0" gradientUnits="userSpaceOnUse" x1="11260.3" y1="7142.49" x2="15098.4" y2="5723.36">
   <stop offset="0" style="stop-opacity:1; stop-color:#FC8E5E"/>
   <stop offset="1" style="stop-opacity:1; stop-color:#FF71FF"/>
  </linearGradient>
  <linearGradient id="id1" gradientUnits="userSpaceOnUse" x1="13879" y1="9787.02" x2="6058.64" y2="13453.6">
   <stop offset="0" style="stop-opacity:1; stop-color:#6BCEFF"/>
   <stop offset="1" style="stop-opacity:1; stop-color:#8A3CFF"/>
  </linearGradient>
  <linearGradient id="id2" gradientUnits="userSpaceOnUse" x1="1605.43" y1="9000.62" x2="9674.02" y2="300.663">
   <stop offset="0" style="stop-opacity:1; stop-color:#F95063"/>
   <stop offset="1" style="stop-opacity:1; stop-color:#FFDC57"/>
  </linearGradient>
 </defs>
 <g id="Plan_x0020_1">
  <metadata id="CorelCorpID_0Corel-Layer"/>
  <g id="_1754994789728">
   <g>
    <path class="fil0" d="M13944 9720c1510,-1585 1486,-4108 -70,-5664l-136 -137 -9 -9 -582 -582 -198 -198 -3 -3 -1943 -1942c-1579,-1580 -4156,-1580 -5736,0l-4935 4936c-443,442 -443,1164 0,1606l1273 1273c443,443 1164,443 1606,0l4941 -4940 2847 2847 2945 2813z"/>
    <path class="fil1" d="M6059 13454l1273 1273c443,443 1164,443 1606,0l4941 -4940c22,-22 44,-45 66,-67l-1 0 -2930 -2798c-102,103 -210,202 -323,294l-4632 4632c-443,442 -443,1163 0,1606z"/>
    <path class="fil2" d="M13944 9720c349,-367 616,-784 801,-1227l11 -25c5,-14 11,-27 16,-41 8,-20 16,-39 23,-58l4 -10c1133,-3032 -1154,-4587 -2980,-6354 -99,-96 -179,-210 -298,-265 447,651 709,1310 709,2289 0,979 -494,2162 -1216,2893l2930 2798z"/>
   </g>
   <path class="fil3" d="M21519 1747l-2906 0 0 8313 2906 0c2656,0 4383,-1631 4383,-4144 0,-2525 -1727,-4169 -4383,-4169zm-1238 6896l0 -5490 1179 0c1751,0 2739,1036 2739,2763 0,1727 -988,2727 -2739,2727l-1179 0zm6872 1417l1667 0 0 -5511 -1667 0 0 5511zm845 -6298c584,0 1025,-428 1025,-976 0,-548 -441,-977 -1025,-977 -595,0 -1024,429 -1024,977 0,548 429,976 1024,976zm2037 2976c0,2060 1334,3430 3013,3430 1036,0 1786,-512 2180,-1084l0 1024c0,1227 -715,1751 -1632,1751 -834,0 -1453,-393 -1620,-989l-1655 0c166,1513 1465,2442 3323,2442 2167,0 3263,-1417 3263,-3204l0 -6646 -1679 0 0 941c-394,-571 -1144,-1048 -2180,-1048 -1679,0 -3013,1322 -3013,3383zm5193 23c0,1251 -834,1942 -1751,1942 -893,0 -1739,-715 -1739,-1965 0,-1251 846,-1918 1739,-1918 917,0 1751,691 1751,1941zm3310 3299l1668 0 0 -5511 -1668 0 0 5511zm846 -6298c584,0 1024,-428 1024,-976 0,-548 -440,-977 -1024,-977 -595,0 -1024,429 -1024,977 0,548 429,976 1024,976zm2727 4250c0,1513 846,2048 2108,2048l1049 0 0 -1405 -775 0c-524,0 -702,-190 -702,-631l0 -3192 1477 0 0 -1370 -1477 0 0 -1631 -1680 0 0 1631 -786 0 0 1370 786 0 0 3180zm3931 -1274c0,2060 1334,3430 3001,3430 1048,0 1798,-501 2191,-1072l0 964 1680 0 0 -6598 -1680 0 0 941c-393,-548 -1119,-1048 -2179,-1048 -1679,0 -3013,1322 -3013,3383zm5192 23c0,1251 -833,1942 -1751,1942 -893,0 -1738,-715 -1738,-1965 0,-1251 845,-1918 1738,-1918 918,0 1751,691 1751,1941zm3311 3299l1668 0 0 -8251 -1668 0 0 8251zm11374 0l1667 0 0 -8251 -1667 0 0 3357 -3561 0 0 -3357 -1667 0 0 8251 1667 0 0 -3537 3561 0 0 3537zm9683 -3299c0,-2084 -1489,-3406 -3395,-3406 -1905,0 -3394,1322 -3394,3406 0,2073 1441,3407 3347,3407 1917,0 3442,-1334 3442,-3407zm-5098 0c0,-1321 798,-1953 1680,-1953 881,0 1703,632 1703,1953 0,1311 -846,1954 -1727,1954 -893,0 -1656,-643 -1656,-1954zm15555 3299l1667 0 0 -3870c0,-1822 -1120,-2823 -2704,-2823 -964,0 -1834,512 -2262,1263 -453,-822 -1299,-1263 -2323,-1263 -822,0 -1524,346 -1941,893l0 -798 -1668 0 0 6598 1668 0 0 -3644c0,-1048 583,-1596 1489,-1596 881,0 1465,548 1465,1596l0 3644 1667 0 0 -3644c0,-1048 583,-1596 1477,-1596 881,0 1465,548 1465,1596l0 3644zm6085 -5335c858,0 1549,548 1573,1417l-3133 0c131,-905 763,-1417 1560,-1417zm3133 3263l-1799 0c-214,441 -607,798 -1322,798 -833,0 -1500,-548 -1584,-1524l4824 0c36,-215 47,-429 47,-643 0,-1966 -1345,-3264 -3251,-3264 -1953,0 -3311,1322 -3311,3406 0,2073 1394,3407 3311,3407 1632,0 2727,-965 3085,-2180z"/>
  </g>
 </g>
</svg>
