<?xml version="1.0" encoding="UTF-8"?>
<!DOCTYPE svg PUBLIC "-//W3C//DTD SVG 1.1//EN" "http://www.w3.org/Graphics/SVG/1.1/DTD/svg11.dtd">
<!-- Creator: CorelDRAW X8 -->
<svg xmlns="http://www.w3.org/2000/svg" xml:space="preserve" width="2294px" height="899px" version="1.1" style="shape-rendering:geometricPrecision; text-rendering:geometricPrecision; image-rendering:optimizeQuality; fill-rule:evenodd; clip-rule:evenodd"
viewBox="0 0 2294001 898741"
 xmlns:xlink="http://www.w3.org/1999/xlink">
 <defs>
  <style type="text/css">
   <![CDATA[
    .fil3 {fill:#1A1A1A;fill-rule:nonzero}
    .fil1 {fill:url(#id0)}
    .fil0 {fill:url(#id1)}
    .fil2 {fill:url(#id2)}
   ]]>
  </style>
  <linearGradient id="id0" gradientUnits="userSpaceOnUse" x1="1.33597e+06" y1="291060" x2="1.10557e+06" y2="399076">
   <stop offset="0" style="stop-opacity:1; stop-color:#6BCEFF"/>
   <stop offset="1" style="stop-opacity:1; stop-color:#8A3CFF"/>
  </linearGradient>
  <linearGradient id="id1" gradientUnits="userSpaceOnUse" x1="971131" y1="269581" x2="1.20421e+06" y2="19945.2">
   <stop offset="0" style="stop-opacity:1; stop-color:#F95063"/>
   <stop offset="1" style="stop-opacity:1; stop-color:#FFDC57"/>
  </linearGradient>
  <linearGradient id="id2" gradientUnits="userSpaceOnUse" x1="1.25652e+06" y1="213244" x2="1.35174e+06" y2="170873">
   <stop offset="0" style="stop-opacity:1; stop-color:#FC8E5E"/>
   <stop offset="1" style="stop-opacity:1; stop-color:#FF71FF"/>
  </linearGradient>
 </defs>
 <g id="Plan_x0020_1">
  <metadata id="CorelCorpID_0Corel-Layer"/>
  <g id="_1754738554576">
   <path class="fil0" d="M1337919 290226c45053,-47320 44350,-122661 -2084,-169121l-4088 -4089 -260 -260 -17396 -17396 -5886 -5886 -104 -104 -57997 -57997c-47163,-47163 -124093,-47163 -171257,0l-147377 147402c-13204,13204 -13204,34742 0,47945l38023 38023c13204,13204 34741,13204 47945,0l147532 -147506 85004 85004 87946 83987 -1 -2z"/>
   <path class="fil1" d="M1102466 401715l38023 38023c13204,13204 34741,13204 47945,0l147532 -147506c651,-677 1302,-1328 1954,-2006l0 0 -87503 -83545c-3048,3100 -6276,6016 -9662,8777l-138286 138286c-13204,13204 -13204,34768 0,47971l-3 0z"/>
   <path class="fil2" d="M1337919 290226c10417,-10964 18386,-23386 23907,-36616l313 -755c156,-417 313,-833 495,-1223 234,-599 443,-1172 677,-1745l103 -313c33856,-90499 -34454,-136933 -88962,-189695 -2968,-2865 -5339,-6276 -8906,-7917 13360,19454 21172,39117 21172,68337 0,29246 -14766,64560 -36304,86383l87504 83545 1 -1z"/>
  </g>
  <path class="fil3" d="M86774 553440l-86774 0 0 248213 86774 0c79300,0 130865,-48700 130865,-123755 0,-75367 -51564,-124458 -130865,-124458zm-36980 205894l0 -163913 35184 0c52294,0 81800,30913 81800,82477 0,51564 -29506,81435 -81800,81435l-35184 0 0 1zm205164 42319l49794 0 0 -164564 -49794 0 0 164564zm25262 -188028c17423,0 30574,-12813 30574,-29168 0,-16356 -13152,-29169 -30574,-29169 -17787,0 -30574,12813 -30574,29169 0,16355 12787,29168 30574,29168zm60810 88832c0,61512 39819,102399 89952,102399 30938,0 53362,-15287 65081,-32345l0 30574c0,36615 -21330,52268 -48700,52268 -24897,0 -43387,-11719 -48361,-29506l-49429 0c4975,45158 43726,72894 99197,72894 64716,0 97451,-42320 97451,-95655l0 -198420 -50158 0 0 28075c-11719,-17059 -34143,-31278 -65081,-31278 -50133,0 -89952,39454 -89952,100994zm155033 703c0,37345 -24897,57971 -52269,57971 -26667,0 -51929,-21356 -51929,-58674 0,-37346 25262,-57269 51929,-57269 27372,0 52269,20626 52269,57972zm98857 98493l49793 0 0 -164564 -49793 0 0 164564zm25262 -188028c17423,0 30573,-12813 30573,-29168 0,-16356 -13151,-29169 -30573,-29169 -17787,0 -30600,12813 -30600,29169 0,16355 12813,29168 30600,29168zm81435 126880c0,45159 25236,61149 62945,61149l31278 0 0 -41955 -23100 0c-15651,0 -20990,-5677 -20990,-18855l0 -95290 44090 0 0 -40887 -44090 0 0 -48725 -50133 0 0 48725 -23490 0 0 40887 23490 0 0 94953 0 -2zm117349 -38048c0,61512 39820,102399 89613,102399 31278,0 53674,-14922 65419,-32006l0 28803 50133 0 0 -196987 -50133 0 0 28075c-11745,-16356 -33412,-31278 -65081,-31278 -50133,0 -89952,39454 -89952,100994l1 0zm155032 703c0,37345 -24897,57971 -52268,57971 -26668,0 -51929,-21356 -51929,-58674 0,-37346 25261,-57269 51929,-57269 27371,0 52268,20626 52268,57972zm98858 98493l49794 0 0 -246365 -49794 0 0 246365zm339597 0l49794 0 0 -246365 -49794 0 0 100212 -106332 0 0 -100212 -49767 0 0 246365 49767 0 0 -105603 106332 0 0 105603zm289127 -98493c0,-62243 -44455,-101697 -101358,-101697 -56904,0 -101358,39454 -101358,101697 0,61877 43049,101696 99926,101696 57269,0 102791,-39819 102791,-101696l-1 0zm-152220 0c0,-39481 23829,-58310 50159,-58310 26304,0 50835,18829 50835,58310 0,39116 -25235,58309 -51564,58309 -26667,0 -49429,-19194 -49429,-58309l-1 0zm464420 98493l49794 0 0 -115552c0,-54428 -33439,-84299 -80733,-84299 -28803,0 -54741,15313 -67554,37709 -13516,-24531 -38752,-37709 -69352,-37709 -24531,0 -45496,10313 -57945,26667l0 -23803 -49793 0 0 196987 49793 0 0 -108807c0,-31304 17423,-47658 44429,-47658 26329,0 43751,16356 43751,47658l0 108807 49794 0 0 -108807c0,-31304 17423,-47658 44091,-47658 26303,0 43725,16356 43725,47658l0 108807zm181727 -159303c25599,0 46226,16355 46929,42320l-93520 0c3907,-27033 22762,-42320 46591,-42320zm93519 97425l-53700 0c-6407,13178 -18126,23829 -39480,23829 -24871,0 -44794,-16355 -47295,-45522l144043 0c1068,-6381 1407,-12787 1407,-19194 0,-58674 -40184,-97425 -97088,-97425 -58309,0 -98858,39454 -98858,101697 0,61877 41616,101696 98858,101696 48726,0 81436,-28803 92114,-65081l-1 0z"/>
 </g>
</svg>
