<?xml version="1.0" encoding="UTF-8"?>
<!DOCTYPE svg PUBLIC "-//W3C//DTD SVG 1.1//EN" "http://www.w3.org/Graphics/SVG/1.1/DTD/svg11.dtd">
<!-- Creator: CorelDRAW X8 -->
<svg xmlns="http://www.w3.org/2000/svg" xml:space="preserve" width="62px" height="44px" version="1.1" style="shape-rendering:geometricPrecision; text-rendering:geometricPrecision; image-rendering:optimizeQuality; fill-rule:evenodd; clip-rule:evenodd"
viewBox="0 0 62000 43401"
 xmlns:xlink="http://www.w3.org/1999/xlink">
 <defs>
  <style type="text/css">
   <![CDATA[
    .fil0 {fill:#1A1A1A}
   ]]>
  </style>
 </defs>
 <g id="Plan_x0020_1">
  <metadata id="CorelCorpID_0Corel-Layer"/>
  <path class="fil0" d="M62000 40316c0,1705 -1383,3085 -3084,3085l-24831 0c-819,0 -1603,-325 -2182,-903 -578,-579 -903,-1364 -903,-2182 0,-818 325,-1603 903,-2181 579,-578 1363,-903 2182,-903l24831 0c1705,0 3084,1379 3084,3084zm0 -18616c0,1705 -1383,3085 -3084,3085l-55832 0c-818,0 -1603,-325 -2181,-903 -578,-579 -903,-1364 -903,-2182 0,-817 325,-1602 903,-2181 578,-578 1363,-904 2181,-904l55832 0c1705,0 3084,1383 3084,3085zm-3084 -15531c818,0 1603,-325 2181,-904 578,-577 903,-1362 903,-2180 0,-818 -325,-1603 -903,-2182 -578,-577 -1363,-903 -2181,-903l-37232 0c-404,0 -806,80 -1180,236 -375,154 -715,381 -1000,667 -287,287 -515,627 -669,1001 -155,375 -235,776 -235,1181 0,405 80,806 235,1180 154,375 382,715 669,1000 285,288 625,515 1000,669 374,155 776,235 1180,235l37232 0z"/>
 </g>
</svg>
