<?xml version="1.0" encoding="UTF-8"?>
<!DOCTYPE svg PUBLIC "-//W3C//DTD SVG 1.1//EN" "http://www.w3.org/Graphics/SVG/1.1/DTD/svg11.dtd">
<!-- Creator: CorelDRAW X8 -->
<svg xmlns="http://www.w3.org/2000/svg" xml:space="preserve" width="65px" height="65px" version="1.1" style="shape-rendering:geometricPrecision; text-rendering:geometricPrecision; image-rendering:optimizeQuality; fill-rule:evenodd; clip-rule:evenodd"
viewBox="0 0 64096 64091"
 xmlns:xlink="http://www.w3.org/1999/xlink">
 <defs>
  <style type="text/css">
   <![CDATA[
    .str0 {stroke:#1A1A1A;stroke-width:6190.92;stroke-linecap:round}
    .fil0 {fill:none}
   ]]>
  </style>
 </defs>
 <g id="Plan_x0020_1">
  <metadata id="CorelCorpID_0Corel-Layer"/>
  <path class="fil0 str0" d="M61905 61905l-13886 -13910 13886 13910zm-6190 -32500c0,6978 -2773,13669 -7706,18604 -4935,4933 -11626,7706 -18604,7706 -6978,0 -13670,-2773 -18604,-7706 -4934,-4935 -7706,-11626 -7706,-18604 0,-6978 2772,-13670 7706,-18604 4934,-4934 11626,-7706 18604,-7706 6978,0 13669,2772 18604,7706 4933,4934 7706,11626 7706,18604l0 0z"/>
 </g>
</svg>
