<?xml version="1.0" encoding="UTF-8"?>
<!DOCTYPE svg PUBLIC "-//W3C//DTD SVG 1.1//EN" "http://www.w3.org/Graphics/SVG/1.1/DTD/svg11.dtd">
<!-- Creator: CorelDRAW X8 -->
<svg xmlns="http://www.w3.org/2000/svg" xml:space="preserve" width="71px" height="58px" version="1.1" style="shape-rendering:geometricPrecision; text-rendering:geometricPrecision; image-rendering:optimizeQuality; fill-rule:evenodd; clip-rule:evenodd"
viewBox="0 0 72858 59231"
 xmlns:xlink="http://www.w3.org/1999/xlink">
 <defs>
  <style type="text/css">
   <![CDATA[
    .fil0 {fill:#1A1A1A}
   ]]>
  </style>
 </defs>
 <g id="Plan_x0020_1">
  <metadata id="CorelCorpID_0Corel-Layer"/>
  <path class="fil0" d="M72858 7027c-2679,1187 -5557,1989 -8583,2351 3122,-1867 5458,-4808 6571,-8272 -2932,1743 -6144,2969 -9491,3626 -2252,-2403 -5233,-3997 -8483,-4532 -3249,-536 -6586,17 -9489,1572 -2903,1555 -5212,4024 -6568,7025 -1356,3001 -1684,6366 -932,9573 -5944,-299 -11758,-1844 -17066,-4535 -5308,-2691 -9991,-6467 -13744,-11086 -1283,2215 -2022,4781 -2022,7516 -1,2461 605,4884 1765,7054 1159,2171 2838,4022 4884,5389 -2374,-75 -4695,-717 -6770,-1870l0 191c-1,3453 1193,6798 3379,9470 2185,2671 5228,4505 8612,5189 -2203,595 -4511,683 -6752,256 955,2970 2815,5568 5318,7428 2504,1860 5528,2892 8647,2949 -5295,4157 -11834,6412 -18566,6401 -1192,2 -2384,-69 -3568,-208 6833,4394 14787,6726 22910,6716 27500,0 42533,-22776 42533,-42529 0,-642 -17,-1289 -45,-1932 2924,-2114 5448,-4733 7454,-7733l6 -9z"/>
 </g>
</svg>
